<?xml version="1.0" standalone="no"?>
<!DOCTYPE svg PUBLIC "-//W3C//DTD SVG 20010904//EN"
 "http://www.w3.org/TR/2001/REC-SVG-20010904/DTD/svg10.dtd">
<svg version="1.0" xmlns="http://www.w3.org/2000/svg"
 width="330.000000pt" height="330.000000pt" viewBox="0 0 330.000000 330.000000"
 preserveAspectRatio="xMidYMid meet">
<metadata>
Created by potrace 1.11, written by Peter Selinger 2001-2013
</metadata>
<g transform="translate(0.000000,330.000000) scale(0.100000,-0.100000)"
fill="#000000" stroke="none">
<path d="M0 1650 l0 -1650 1650 0 1650 0 0 1650 0 1650 -1650 0 -1650 0 0
-1650z m340 395 l0 -45 -90 0 -90 0 0 -85 0 -85 70 0 70 0 0 -45 0 -45 -70 0
-70 0 0 -90 0 -90 95 0 95 0 0 -50 0 -51 -145 3 -145 3 -3 313 -2 312 143 0
142 0 0 -45z m1878 -267 l-3 -313 -45 0 -45 0 -3 313 -2 312 50 0 50 0 -2
-312z m160 270 l-3 -43 -47 -3 -48 -3 0 45 0 46 51 0 50 0 -3 -42z m862 -273
l0 -315 -45 0 -45 0 0 315 0 315 45 0 45 0 0 -315z m-2293 140 c13 -9 28 -26
33 -39 4 -13 10 -112 12 -220 l3 -196 -42 0 c-36 0 -43 3 -43 20 0 25 -1 25
-44 -1 -40 -23 -103 -27 -134 -8 -45 28 -54 97 -22 165 22 44 63 77 143 115
39 19 47 28 47 50 0 62 -72 80 -100 24 -13 -26 -21 -30 -58 -30 -34 0 -42 3
-42 18 0 44 47 102 96 117 39 13 121 4 151 -15z m356 14 c42 -19 47 -47 47
-265 l0 -205 -46 3 -45 3 -2 189 c-2 212 -5 222 -66 197 l-31 -13 -2 -187 -3
-186 -47 -3 -48 -3 0 235 0 236 45 0 c38 0 45 -3 45 -20 0 -22 15 -27 26 -9 8
14 63 38 86 39 9 0 28 -5 41 -11z m326 -17 l27 -20 27 24 c42 36 57 31 57 -16
0 -33 -3 -40 -19 -40 -43 0 -47 -7 -43 -83 6 -132 -26 -178 -139 -194 -37 -6
-54 -13 -54 -23 0 -18 35 -28 103 -29 58 -1 109 -19 131 -45 7 -9 14 -34 14
-57 0 -80 -66 -113 -214 -107 -76 3 -91 6 -113 27 -34 32 -33 57 4 91 29 27
29 28 10 45 -28 25 -25 52 9 86 l30 29 -24 24 c-29 29 -38 75 -33 166 4 81 26
118 79 137 45 17 115 10 148 -15z m370 1 c43 -32 61 -79 61 -160 l0 -73 -100
0 -100 0 0 -58 c0 -46 4 -63 20 -77 32 -29 72 -10 84 38 9 36 11 37 54 37 l45
0 -6 -40 c-11 -82 -57 -121 -140 -121 -118 0 -149 42 -155 211 -6 166 19 238
91 259 46 14 115 6 146 -16z m676 3 c26 -17 52 -68 57 -111 3 -29 2 -30 -44
-33 -46 -3 -48 -2 -48 24 0 55 -53 82 -92 47 -16 -14 -18 -33 -18 -145 0 -115
2 -130 20 -148 41 -41 90 -10 90 57 0 32 1 33 45 33 l45 0 0 -42 c0 -48 -26
-98 -64 -123 -33 -22 -129 -22 -162 0 -54 35 -64 68 -64 218 0 174 17 218 95
240 32 9 116 -1 140 -17z m355 -4 c46 -34 50 -54 50 -259 l0 -193 -41 0 c-32
0 -42 4 -46 19 -5 19 -6 19 -36 1 -55 -32 -118 -30 -152 5 -20 19 -25 34 -25
75 0 86 38 134 145 185 54 25 56 27 53 62 -2 20 -10 40 -19 46 -26 16 -66 0
-77 -30 -8 -25 -14 -28 -53 -27 -40 1 -44 3 -40 25 11 77 79 124 166 115 27
-3 61 -14 75 -24z m-2570 16 c0 -13 60 -301 63 -304 2 -2 17 65 33 148 l29
153 48 3 c26 2 47 1 47 -2 0 -3 -25 -110 -56 -236 l-56 -231 -45 3 -46 3 -53
220 c-29 121 -54 226 -54 233 0 8 16 12 45 12 25 0 45 -1 45 -2z m1918 -230
l-3 -233 -47 -3 -48 -3 0 235 0 236 50 0 50 0 -2 -232z m107 -308 c4 -27 11
-50 15 -50 4 0 11 23 15 50 6 40 11 50 26 50 17 0 19 -8 19 -95 0 -57 -4 -95
-10 -95 -6 0 -10 29 -10 68 -1 74 -13 69 -24 -10 -10 -66 -23 -68 -31 -6 -11
84 -24 92 -25 15 0 -45 -4 -67 -11 -65 -6 2 -10 7 -10 11 1 4 1 45 1 92 0 77
2 85 19 85 15 0 20 -10 26 -50z m545 40 c0 -5 -7 -10 -15 -10 -8 0 -15 5 -15
10 0 6 7 10 15 10 8 0 15 -4 15 -10z m-362 -111 l3 -65 -35 -1 c-61 -2 -74 49
-21 77 14 7 25 19 25 27 0 17 -27 17 -33 1 -2 -7 -8 -10 -12 -6 -18 17 5 39
37 36 l33 -3 3 -66z m122 59 c0 -4 -4 -8 -10 -8 -5 0 -10 -13 -10 -28 0 -32
-16 -52 -43 -52 -10 0 -15 -4 -12 -10 3 -5 19 -10 36 -10 16 0 29 -2 29 -4 0
-2 3 -11 6 -20 4 -10 -5 -20 -26 -31 -29 -15 -33 -15 -56 0 -17 11 -22 20 -16
28 5 7 8 37 6 67 -2 30 -2 61 1 68 5 14 95 14 95 0z m88 -58 l3 -65 -38 0
c-34 0 -38 3 -41 28 -3 22 3 31 27 45 31 17 42 42 18 42 -7 0 -18 -5 -25 -12
-17 -17 -27 -2 -12 17 8 9 25 15 39 13 25 -3 26 -6 29 -68z m102 52 c0 -9 -11
-34 -25 -55 -14 -20 -22 -37 -18 -38 4 -1 16 -2 25 -3 32 -2 24 -21 -11 -24
-51 -5 -58 10 -27 62 31 54 32 56 6 56 -11 0 -20 5 -20 10 0 6 16 10 35 10 27
0 35 -4 35 -18z m50 -53 c0 -52 -3 -70 -12 -67 -8 3 -14 29 -16 71 -2 55 0 67
13 67 12 0 15 -14 15 -71z m105 2 c0 -43 -4 -66 -12 -68 -10 -4 -13 12 -13 56
0 47 -3 61 -15 61 -10 0 -15 -15 -17 -55 -4 -78 -22 -74 -26 7 l-3 67 43 -2
43 -2 0 -64z m105 43 c15 -39 13 -44 -25 -44 -28 0 -35 -4 -35 -19 0 -28 21
-37 36 -16 19 26 38 14 19 -13 -18 -24 -44 -29 -63 -10 -13 13 -17 110 -5 121
3 4 19 7 35 7 21 0 31 -6 38 -26z"/>
<path d="M838 1660 c-50 -43 -63 -79 -41 -110 18 -26 43 -25 77 1 23 18 26 27
26 85 0 35 -4 64 -9 64 -4 0 -29 -18 -53 -40z"/>
<path d="M1506 1844 c-24 -24 -22 -145 2 -167 49 -45 86 2 80 99 -4 66 -14 84
-50 84 -9 0 -24 -7 -32 -16z"/>
<path d="M1523 1453 c-46 -9 -53 -55 -10 -67 33 -9 83 -7 111 4 27 10 36 47
14 55 -21 7 -91 12 -115 8z"/>
<path d="M1876 1844 c-9 -8 -16 -31 -16 -50 l0 -34 55 0 c53 0 55 1 55 28 0
60 -57 94 -94 56z"/>
<path d="M2933 1670 c-66 -49 -82 -116 -32 -134 19 -6 32 -4 52 9 25 16 27 23
27 86 0 38 -1 69 -3 69 -2 0 -21 -13 -44 -30z"/>
<path d="M2622 1308 c-15 -15 -16 -41 0 -36 13 5 31 48 20 48 -5 0 -13 -5 -20
-12z"/>
<path d="M2714 1356 c-8 -22 3 -49 19 -43 6 2 12 14 12 27 0 27 -22 39 -31 16z"/>
<path d="M2710 1240 c0 -5 11 -10 25 -10 14 0 25 5 25 10 0 6 -11 10 -25 10
-14 0 -25 -4 -25 -10z"/>
<path d="M2830 1305 c-9 -11 -10 -19 -2 -27 14 -14 32 -1 32 23 0 23 -13 25
-30 4z"/>
<path d="M3187 1363 c-13 -12 -7 -23 13 -23 11 0 20 7 20 15 0 15 -21 21 -33
8z"/>
</g>
</svg>
